# xmcd CD database file
#
# Track frame offsets:
#	150
#	17852
#	32254
#	44631
#	58270
#	73047
#	86149
#	99214
#	111891
#	127160
#	142262
#	158126
#	172841
#	185393
#	200070
#	215185
#
# Disc length: 3037 seconds
#
# Revision: 2
# Processed by: cddbd v1.5PL3 Copyright (c) Steve Scherf et al.
# Submitted via: CDex 1.50
#
DISCID=f20bdb10
DTITLE=Paul Robeson - Ol' Man River
DYEAR=1900
DGENRE=Blues
TTITLE0=Ol' Man River
TTITLE1=Roll Away, Clouds
TTITLE2=The Lonesome Road
TTITLE3=Got The South In My Soul
TTITLE4=Hush-A-Bye Lullabye
TTITLE5=Round The Bend Of The Road
TTITLE6=Carry Me Back To Green Pastures
TTITLE7=Blue Prelude
TTITLE8=Wagon Wheels
TTITLE9=So Shy
TTITLE10=St. Louis Blues
TTITLE11=Little Man, You've Had A Busy Day
TTITLE12=I Ain't Lazy, I'm Just Dreaming
TTITLE13=Shenandoah
TTITLE14=All Through The Right
TTITLE15=Swing Low Sweet Chariot
EXTD=
EXTT0=
EXTT1=
EXTT2=
EXTT3=
EXTT4=
EXTT5=
EXTT6=
EXTT7=
EXTT8=
EXTT9=
EXTT10=
EXTT11=
EXTT12=
EXTT13=
EXTT14=
EXTT15=
PLAYORDER=
